<svg id="Layer_1" enable-background="new 0 0 256 256" height="512" viewBox="0 0 256 256" width="512" xmlns="http://www.w3.org/2000/svg"><g><path d="m127 156.395c-15.657 0-28.395-12.737-28.395-28.395s12.738-28.395 28.395-28.395 28.395 12.737 28.395 28.395-12.738 28.395-28.395 28.395zm0-51.79c-12.9 0-23.395 10.495-23.395 23.395s10.495 23.395 23.395 23.395 23.395-10.495 23.395-23.395-10.495-23.395-23.395-23.395z" fill="#fff"/><g fill="#fff"><path d="m189.274 148.587c-4.779 0-9.053 2.193-11.874 5.625l-13.674-7.895c2.411-4.814 3.904-10.161 4.245-15.817h10.957v2.718c0 1.381 1.119 2.5 2.5 2.5s2.5-1.119 2.5-2.5v-10.436c0-1.381-1.119-2.5-2.5-2.5s-2.5 1.119-2.5 2.5v2.718h-10.957c-.342-5.656-1.834-11.003-4.245-15.817l13.674-7.895c2.821 3.432 7.095 5.625 11.874 5.625 8.474 0 15.367-6.894 15.367-15.367s-6.894-15.367-15.367-15.367-15.367 6.894-15.367 15.367c0 1.905.365 3.723 1.001 5.408l-13.686 7.902c-3.046-4.589-6.989-8.531-11.577-11.577l5.485-9.5 2.354 1.359c.394.228.823.335 1.248.335.864 0 1.705-.448 2.167-1.25.69-1.195.281-2.725-.915-3.415l-9.038-5.219c-1.194-.69-2.725-.28-3.415.915s-.281 2.725.915 3.415l2.354 1.359-5.482 9.495c-4.814-2.411-10.161-3.903-15.817-4.245v-15.791c7.286-1.2 12.867-7.525 12.867-15.145 0-8.474-6.894-15.367-15.367-15.367s-15.367 6.894-15.367 15.367c0 7.621 5.581 13.945 12.867 15.145v15.792c-5.656.342-11.003 1.834-15.817 4.245l-5.482-9.495 2.354-1.359c1.196-.69 1.605-2.22.915-3.415-.691-1.195-2.219-1.607-3.415-.915l-9.038 5.219c-1.196.69-1.605 2.22-.915 3.415.463.802 1.303 1.25 2.167 1.25.424 0 .854-.107 1.248-.335l2.354-1.359 5.485 9.5c-4.589 3.046-8.531 6.989-11.577 11.577l-13.686-7.902c.637-1.685 1.001-3.502 1.001-5.408 0-8.474-6.894-15.367-15.367-15.367s-15.367 6.894-15.367 15.367 6.894 15.367 15.367 15.367c4.779 0 9.053-2.193 11.874-5.625l13.674 7.895c-2.411 4.814-3.904 10.161-4.245 15.817h-10.96v-2.718c0-1.381-1.119-2.5-2.5-2.5s-2.5 1.119-2.5 2.5v10.436c0 1.381 1.119 2.5 2.5 2.5s2.5-1.119 2.5-2.5v-2.719h10.957c.342 5.656 1.834 11.003 4.245 15.817l-13.673 7.895c-2.821-3.432-7.095-5.625-11.874-5.625-8.474 0-15.367 6.894-15.367 15.367s6.894 15.367 15.367 15.367 15.367-6.894 15.367-15.367c0-1.905-.365-3.723-1.001-5.408l13.686-7.902c3.046 4.589 6.989 8.531 11.577 11.577l-5.485 9.5-2.354-1.359c-1.194-.69-2.725-.28-3.415.915s-.281 2.725.915 3.415l9.038 5.219c.394.228.823.335 1.248.335.864 0 1.705-.448 2.167-1.25.69-1.195.281-2.725-.915-3.415l-2.354-1.359 5.482-9.495c4.814 2.411 10.161 3.903 15.817 4.245v15.792c-7.286 1.2-12.867 7.525-12.867 15.145 0 8.474 6.894 15.367 15.367 15.367s15.367-6.894 15.367-15.367c0-7.621-5.581-13.945-12.867-15.145v-15.792c5.656-.342 11.003-1.834 15.817-4.245l5.482 9.495-2.354 1.359c-1.196.69-1.605 2.22-.915 3.415.463.802 1.303 1.25 2.167 1.25.424 0 .854-.107 1.248-.335l9.038-5.219c1.196-.69 1.605-2.22.915-3.415s-2.22-1.607-3.415-.915l-2.354 1.359-5.485-9.5c4.589-3.046 8.531-6.989 11.577-11.577l13.686 7.902c-.637 1.685-1.001 3.502-1.001 5.408 0 8.474 6.894 15.367 15.367 15.367s15.367-6.894 15.367-15.367-6.891-15.367-15.365-15.367zm0-66.908c5.716 0 10.367 4.65 10.367 10.367s-4.651 10.367-10.367 10.367-10.367-4.65-10.367-10.367 4.651-10.367 10.367-10.367zm-124.548 20.734c-5.716 0-10.367-4.65-10.367-10.367s4.651-10.367 10.367-10.367 10.367 4.65 10.367 10.367-4.651 10.367-10.367 10.367zm0 71.908c-5.716 0-10.367-4.65-10.367-10.367s4.651-10.367 10.367-10.367 10.367 4.65 10.367 10.367-4.651 10.367-10.367 10.367zm51.907-118.229c0-5.717 4.651-10.367 10.367-10.367s10.367 4.65 10.367 10.367-4.651 10.367-10.367 10.367-10.367-4.65-10.367-10.367zm20.734 143.816c0 5.717-4.651 10.367-10.367 10.367s-10.367-4.65-10.367-10.367 4.651-10.367 10.367-10.367 10.367 4.65 10.367 10.367zm-10.367-35.853c-19.881 0-36.055-16.174-36.055-36.055s16.174-36.055 36.055-36.055 36.055 16.174 36.055 36.055-16.174 36.055-36.055 36.055zm62.274 10.266c-5.716 0-10.367-4.65-10.367-10.367s4.651-10.367 10.367-10.367 10.367 4.65 10.367 10.367-4.65 10.367-10.367 10.367z"/><path d="m116.446 104.113c-7.613 0-13.806 6.193-13.806 13.806s6.193 13.807 13.806 13.807c7.612 0 13.806-6.193 13.806-13.807 0-7.612-6.193-13.806-13.806-13.806zm0 22.613c-4.856 0-8.806-3.95-8.806-8.807 0-4.855 3.95-8.806 8.806-8.806 4.855 0 8.806 3.95 8.806 8.806s-3.95 8.807-8.806 8.807z"/><path d="m139.44 128.837c-6.146 0-11.146 5-11.146 11.146s5 11.146 11.146 11.146 11.146-5 11.146-11.146-5-11.146-11.146-11.146zm0 17.292c-3.389 0-6.146-2.757-6.146-6.146 0-3.39 2.757-6.146 6.146-6.146s6.146 2.757 6.146 6.146-2.757 6.146-6.146 6.146z"/></g><path d="m127 18.421c-60.422 0-109.58 49.157-109.58 109.579s49.158 109.579 109.58 109.579 109.58-49.157 109.58-109.579-49.158-109.579-109.58-109.579zm0 5c27.935 0 53.348 11.01 72.125 28.918l-147.786 147.787c-17.908-18.778-28.919-44.19-28.919-72.126 0-57.665 46.914-104.579 104.58-104.579zm0 209.158c-27.935 0-53.347-11.01-72.125-28.918l147.786-147.786c17.909 18.778 28.919 44.19 28.919 72.125 0 57.665-46.914 104.579-104.58 104.579z" fill="#fff"/></g></svg>