<svg id="Capa_1" enable-background="new 0 0 511.695 511.695" height="512" fill='#fff' viewBox="0 0 511.695 511.695" width="512" xmlns="http://www.w3.org/2000/svg"><g><path d="m436.76 74.937c-48.323-48.324-112.572-74.937-180.912-74.937-64.766 0-126.57 24.265-174.026 68.325-3.036 2.818-3.212 7.563-.394 10.599 2.816 3.035 7.562 3.212 10.599.394 44.674-41.476 102.853-64.318 163.821-64.318 64.333 0 124.815 25.053 170.306 70.543 45.489 45.49 70.542 105.972 70.542 170.305s-25.053 124.814-70.542 170.305c-45.49 45.49-105.973 70.543-170.306 70.543-64.332 0-124.814-25.053-170.305-70.543s-70.543-105.973-70.543-170.305c0-56.198 19.778-110.897 55.691-154.021 2.65-3.184 2.219-7.912-.964-10.563-3.183-2.649-7.912-2.22-10.563.964-38.152 45.813-59.164 103.92-59.164 163.62 0 68.339 26.613 132.588 74.937 180.911s112.572 74.937 180.911 74.937c68.34 0 132.589-26.613 180.912-74.937s74.936-112.572 74.936-180.911-26.613-132.588-74.936-180.911z"/><path d="m370.94 78.283c-51.998-33.771-114.628-42.795-176.35-25.404-33.137 9.338-63.644 27.041-88.221 51.197-24.632 24.209-42.814 54.419-52.581 87.364-10.81 36.462-12.462 72.984-4.91 108.553 7.031 33.117 22.212 64.473 43.9 90.677 2.871 3.467 7.098 5.502 11.596 5.582.094.002.186.003.278.003 4.392 0 8.566-1.869 11.492-5.155l20.225-22.717c2.755-3.094 2.479-7.835-.614-10.589s-7.834-2.478-10.589.614l-20.225 22.717c-.039.042-.133.128-.298.13-.188-.004-.274-.106-.311-.15-42.641-51.518-55.821-119.094-36.164-185.4 9.047-30.514 25.892-58.498 48.714-80.93 22.783-22.393 51.061-38.803 81.775-47.458 57.501-16.202 115.787-7.841 164.113 23.547.045.03.14.091.163.264.024.184-.062.28-.098.321l-66.697 74.916c-1.109-1.635-2.35-3.196-3.75-4.646l-2.382-2.464 12.638-12.179c2.708-2.609 4.261-6.263 4.261-10.024v-32.534c0-4.143-3.357-7.5-7.5-7.5s-7.5 3.357-7.5 7.5v32.075l-12.361 11.913c-6.246-5.813-14.313-8.995-22.917-8.995s-16.671 3.182-22.917 8.995l-12.361-11.913v-32.075c0-4.143-3.357-7.5-7.5-7.5s-7.5 3.357-7.5 7.5v32.534c0 3.762 1.553 7.415 4.261 10.023l12.639 12.18-2.382 2.464c-9.345 9.669-12.023 23.271-7.125 35.707l-14.832-13.907v-24.451c0-1.989-.79-3.896-2.196-5.304l-6.172-6.172c-2.93-2.928-7.678-2.928-10.607 0-2.929 2.93-2.929 7.678 0 10.607l3.976 3.975v24.594c0 2.073.857 4.054 2.37 5.471l17.884 16.769-68.676 20.265c-10.84 3.199-19.695 10.476-24.935 20.489s-6.17 21.437-2.618 32.165c4.138 12.501 13.675 22.062 26.165 26.23 4.341 1.448 8.784 2.162 13.192 2.162 8.277 0 16.424-2.52 23.481-7.419l9.974-6.925-34.294 38.521c-2.755 3.094-2.479 7.835.614 10.589 3.096 2.755 7.836 2.479 10.589-.614l216.383-243.048c2.989-3.357 4.36-7.84 3.761-12.296-.599-4.449-3.1-8.401-6.861-10.844zm-114.311 76.228c5.113 0 9.887 2.024 13.44 5.701l11.535 11.932c1.766 1.828 3.09 3.865 3.979 6.078l-22.799 25.609h-17.691c-9.125 0-14.873-5.886-17.209-11.394-2.337-5.508-2.573-13.731 3.769-20.292l11.535-11.933c3.554-3.677 8.328-5.701 13.441-5.701zm-19.974 78.669v-1.212c0-7.116 5.69-12.915 12.758-13.119zm-74.434 57.398c-6.892 4.784-15.407 6.007-23.37 3.35-7.96-2.656-14.037-8.749-16.674-16.717-2.264-6.836-1.671-14.115 1.668-20.496s8.982-11.019 15.891-13.057l81.306-23.992c.014-.004.028-.008.042-.012l4.031-1.19c-2.204 4.011-3.46 8.613-3.46 13.504v1.294c0 4.602 1.137 9.089 3.261 13.104l-1.593 1.79z"/><path d="m407.052 130.44c.188.004.273.106.311.15 21.226 25.646 35.656 56.425 41.729 89.01.759 4.073 4.686 6.758 8.747 5.999 4.072-.759 6.758-4.676 5.999-8.747-6.54-35.086-22.073-68.222-44.921-95.826-2.869-3.467-7.096-5.502-11.595-5.583-4.457-.089-8.783 1.796-11.771 5.152l-257.896 289.677c-2.989 3.357-4.359 7.839-3.761 12.295.599 4.449 3.1 8.401 6.86 10.845 34.701 22.538 74.128 34.054 114.869 34.053 20.308-.001 40.948-2.863 61.48-8.648 33.137-9.337 63.644-27.04 88.221-51.196 24.632-24.209 42.814-54.419 52.581-87.363 6.9-23.273 10.076-46.917 9.44-70.272-.111-4.141-3.565-7.373-7.701-7.293-4.141.112-7.406 3.561-7.293 7.701.593 21.773-2.377 43.845-8.827 65.601-9.047 30.513-25.892 58.498-48.714 80.929-22.783 22.393-51.061 38.803-81.775 47.457-57.505 16.202-115.788 7.84-164.111-23.547-.046-.029-.141-.091-.164-.264-.024-.185.062-.28.098-.321l57.024-64.052c3.568 13.257 9.577 25.805 17.756 36.893l5.812 7.881c6.434 8.722 16.34 13.725 27.178 13.725s20.744-5.003 27.179-13.726l5.811-7.879c13.381-18.139 20.478-39.453 21.372-60.967l12.393 12.02v24.244c0 3.767 1.467 7.308 4.13 9.972l8.184 8.184c1.465 1.464 3.385 2.196 5.304 2.196s3.839-.732 5.304-2.196c2.929-2.93 2.929-7.678 0-10.607l-7.921-7.92v-24.252c0-3.792-1.561-7.48-4.283-10.122l-24.175-23.446c-.069-.067-.144-.125-.215-.189-2.218-13.985-7.109-27.611-14.671-40.044l47.444 32.939c7.059 4.9 15.203 7.419 23.481 7.419 4.407 0 8.853-.714 13.191-2.162 12.491-4.169 22.028-13.729 26.166-26.23 3.552-10.729 2.622-22.151-2.617-32.165-5.24-10.014-14.096-17.29-24.937-20.489l-46.635-13.76 75.622-84.941c.038-.048.099-.141.297-.135zm-146.949 164.854h30.466c2.294 6.454 3.884 13.106 4.752 19.839h-52.88zm13.354-15 6.03-6.773c1.511 2.21 2.919 4.469 4.225 6.773zm-44.371 49.839h66.996c-.183 6.667-1.07 13.318-2.637 19.839h-73.675c-.612-2.526-1.13-5.077-1.534-7.651zm48.461 54.053-5.811 7.879c-3.577 4.848-9.083 7.629-15.107 7.629s-11.53-2.781-15.106-7.628l-5.812-7.881c-4.401-5.967-8.072-12.425-10.966-19.213h63.749c-2.852 6.712-6.489 13.17-10.947 19.214zm95.975-140.528c6.908 2.038 12.552 6.676 15.891 13.057s3.932 13.66 1.668 20.498c-2.637 7.966-8.714 14.059-16.674 16.715-7.96 2.657-16.479 1.436-23.37-3.351l-53.603-37.215 22.671-25.465z"/></g></svg>