<svg id="Capa_1" enable-background="new 0 0 512 512" height="512" fill='#fff' viewBox="0 0 512 512" width="512" xmlns="http://www.w3.org/2000/svg"><g><g><path d="m431.146 124.366c11.691 0 22.686-4.555 30.961-12.832 17.041-17.075 17.039-44.834-.005-61.878-8.271-8.272-19.265-12.828-30.956-12.828-11.69 0-22.685 4.556-30.956 12.827-17.044 17.045-17.046 44.804 0 61.884 8.271 8.273 19.266 12.827 30.956 12.827zm-20.349-64.104c5.438-5.438 12.665-8.434 20.349-8.434 7.685 0 14.911 2.995 20.349 8.434v.001c11.202 11.201 11.2 29.448 0 40.671-5.438 5.438-12.664 8.433-20.349 8.433-7.684 0-14.911-2.994-20.344-8.428-11.205-11.228-11.207-29.475-.005-40.677z"/><path d="m488.123 137.59c31.425-31.426 31.425-82.559 0-113.984 0-.001 0-.001 0-.001-15.221-15.222-35.457-23.605-56.977-23.605s-41.756 8.383-56.975 23.602c-24.587 24.562-30.521 61.898-15.318 92.646l-27.736 27.714-54.932-54.934c-11.613-11.611-30.531-11.615-42.184 0-11.63 11.631-11.63 30.555 0 42.185l10.967 10.967-16.296 16.296c-2.929 2.93-2.929 7.678 0 10.607 2.929 2.928 7.678 2.928 10.606 0l16.296-16.296 33.37 33.37-57.576 57.554-33.373-33.373 16.792-16.792c2.929-2.93 2.929-7.678 0-10.607-2.929-2.928-7.678-2.929-10.606.001l-85.119 85.121c-.001.001-.002.002-.003.003s-.002.002-.003.003l-54.191 54.193c-9.195 9.195-9.2 24.184 0 33.426l16.709 16.704-15.944 15.945c-9.426 9.426-9.426 24.764 0 34.191l6.772 6.772-69.897 69.898c-2.929 2.93-2.929 7.678 0 10.607 1.464 1.465 3.384 2.197 5.303 2.197s3.839-.732 5.303-2.196l69.897-69.899 6.744 6.744c4.556 4.556 10.632 7.064 17.109 7.064s12.553-2.509 17.113-7.068l15.925-15.947 16.181 16.176c4.446 4.447 10.376 6.896 16.699 6.896 6.322 0 12.252-2.448 16.698-6.895l52.856-52.857c-.153 2.245-.238 4.508-.238 6.792 0 54.418 44.271 98.689 98.687 98.689s98.688-44.271 98.688-98.689-44.271-98.689-98.688-98.689c-2.276 0-4.532.084-6.771.237l35.557-35.576 10.96 10.96c5.82 5.803 13.459 8.703 21.094 8.703 7.639 0 15.274-2.904 21.082-8.711 11.61-11.611 11.614-30.531 0-42.184l-54.931-54.933 27.713-27.713c30.737 15.184 68.071 9.251 92.637-15.314zm-188.571 59.174 15.43 15.43-57.564 57.566-15.442-15.442zm-186.188 239.277c-3.586 3.586-9.419 3.586-13.005 0l-12.045-12.044c-.001-.001-.001-.002-.002-.002s-.002-.001-.003-.002l-12.072-12.073c-3.578-3.578-3.578-9.4 0-12.978l15.946-15.947 37.108 37.098zm65.505.228c-1.613 1.613-3.776 2.501-6.091 2.501s-4.479-.888-6.092-2.502l-91.203-91.177c-3.366-3.381-3.371-8.865-.012-12.224l16.099-16.1 40.191 40.166c1.464 1.464 3.383 2.195 5.302 2.195 1.92 0 3.84-.732 5.305-2.198 2.928-2.93 2.927-7.679-.003-10.606l-40.188-40.164 22.189-22.19 40.19 40.167c1.464 1.464 3.383 2.195 5.302 2.195 1.92 0 3.84-.732 5.305-2.198 2.928-2.93 2.927-7.679-.003-10.606l-40.188-40.164 22.201-22.202 39.412 39.412c1.464 1.464 3.384 2.196 5.303 2.196s3.839-.732 5.303-2.196c2.929-2.93 2.929-7.678 0-10.607l-39.411-39.412 19.609-19.61 98.133 98.135c-7.703 5.225-14.63 11.512-20.574 18.645l-35.081-35.081c-2.928-2.928-7.677-2.928-10.606 0-2.929 2.93-2.929 7.678 0 10.607l36.873 36.874c-3.219 5.356-5.946 11.04-8.114 16.99zm245.599-35.459c0 46.146-37.542 83.689-83.688 83.689-46.145 0-83.687-37.543-83.687-83.689s37.542-83.689 83.687-83.689c46.146-.001 83.688 37.542 83.688 83.689zm-117.336-92.779c-2.754 1.002-5.449 2.127-8.083 3.361l-31.024-31.025 57.564-57.566 33.372 33.373zm104.963-40.905c0 .001 0 .001 0 0-5.771 5.773-15.182 5.772-20.97 0l-15.988-15.989c-.085-.094-.164-.191-.255-.282l-111.321-111.296-18.953-18.953c-2.778-2.778-4.309-6.502-4.309-10.485s1.53-7.707 4.3-10.478c2.9-2.89 6.704-4.335 10.504-4.335 3.796 0 7.59 1.442 10.474 4.326l146.51 146.514c5.777 5.795 5.781 15.206.008 20.978zm-23.271-128.775-31.659 31.66-12.962-12.962-2.479-2.48 31.684-31.659c2.417-2.416 2.896-6.161 1.163-9.107-15.136-25.74-10.941-58.468 10.205-79.59 12.388-12.39 28.856-19.213 46.37-19.213s33.982 6.823 46.37 19.211c25.577 25.578 25.577 67.195 0 92.772-21.127 21.128-53.854 25.321-79.59 10.203-2.946-1.73-6.688-1.25-9.102 1.165z"/><path d="m340.781 371.148c4.143 0 7.5-3.357 7.5-7.5v-10.233c0-4.143-3.357-7.5-7.5-7.5s-7.5 3.357-7.5 7.5v10.233c0 4.143 3.357 7.5 7.5 7.5z"/><path d="m282.499 381.452 7.229 7.229c1.465 1.464 3.385 2.196 5.304 2.196s3.839-.732 5.304-2.196c2.929-2.93 2.929-7.678 0-10.607l-7.229-7.229c-2.93-2.928-7.678-2.928-10.607 0-2.929 2.929-2.929 7.677-.001 10.607z"/><path d="m386.502 390.877c1.919 0 3.839-.732 5.304-2.197l7.228-7.229c2.929-2.929 2.929-7.678-.001-10.606s-7.677-2.929-10.606.001l-7.228 7.229c-2.929 2.929-2.929 7.678.001 10.606 1.464 1.464 3.383 2.196 5.302 2.196z"/><path d="m299.624 442.039c3.406 8.685 11.455 13.665 22.08 13.665 5.581 0 9.003-1.608 11.753-2.901 2.311-1.086 3.837-1.804 7.323-1.804 3.472 0 4.999.718 7.311 1.805 2.75 1.292 6.172 2.9 11.738 2.9 10.633 0 18.685-4.979 22.091-13.66 3.972-10.123.629-23.244-7.952-31.203l-16.497-15.278c-5.25-4.863-10.833-7.327-16.598-7.327-.031 0-.062 0-.093 0-5.799-.041-11.413 2.438-16.685 7.322l-16.533 15.287c-8.571 7.95-11.91 21.069-7.938 31.194zm18.13-20.188 16.531-15.284c2.386-2.211 4.541-3.331 6.406-3.331h.034.109c1.86-.011 4.041 1.106 6.442 3.332l16.493 15.275c3.959 3.672 5.876 10.414 4.186 14.723-.401 1.023-1.624 4.139-8.127 4.139-2.217 0-3.267-.493-5.357-1.476-2.899-1.363-6.87-3.229-13.691-3.229-6.836 0-10.806 1.866-13.704 3.229-2.091.983-3.141 1.477-5.372 1.477-6.491 0-7.715-3.118-8.116-4.144-1.691-4.312.22-11.052 4.166-14.711z"/></g></g></svg>