<svg height="512" viewBox="0 0 60 60" width="512" xmlns="http://www.w3.org/2000/svg"><g id="Page-1" fill="none" fill-rule="evenodd"><g id="013---No-Mosquitos" fill="rgb(0,0,0)" fill-rule="nonzero"><path id="Shape" d="m30 0c-16.5685425 0-30 13.4314575-30 30s13.4314575 30 30 30 30-13.4314575 30-30c-.018737-16.5607751-13.4392249-29.98126296-30-30zm0 58c-15.463973 0-28-12.536027-28-28s12.536027-28 28-28 28 12.536027 28 28c-.0176345 15.4566626-12.5433374 27.9823655-28 28z"/><path id="Shape" d="m47.209 10.93c-.0110433-.2786191-.1379147-.5399742-.35-.721-5.2813268-4.50289157-12.1450852-6.70486853-19.060303-6.11477646s-13.306657 3.92316675-17.748697 9.25577646c-.0307497.0309233-.05884844.0643742-.084.1-8.04547055 9.7178871-7.94296521 23.8121615.243 33.412.1810258.2120853.4423809.3389567.721.35h.04c.2651948-.0000566.5195073-.1054506.707-.293l35.24-35.24c.1978206-.1978288.3037244-.4694794.292-.749zm-36.164 33.79c-6.75190565-8.6825345-6.72551529-20.8468435.064-29.5l6.349 2.114 2.353 5.487c.0690887.1589127.1787568.2968601.318.4l2.211 1.664c-2.012-.281-4.068-.6-5.635-.914-.832-.166-1.631-.365-2.376-.551-2.348-.587-4.2-1.048-5.426-.092-.70223448.6207208-1.06721115 1.5385462-.983 2.472 0 1.643.679 6.828 8.857 7.63l-1.26 1.32c-.1235369.1285895-.2099302.2882443-.25.462l-1.616 6.9zm15.955-21.738c0-.5522847.4477153-1 1-1s1 .4477153 1 1c-.0029701.0450216-.0089839.0897906-.018.134-.5531034.1280323-1.078982.3535539-1.553.666-.2663874-.1794137-.4269518-.4788344-.429-.8zm5.215.569c-.3784543-.1977616-.7822038-.3427749-1.2-.431-.0084855-.0462271-.0134995-.0930245-.015-.14.0060441-.5465397.4534498-.9849973 1-.98.4718621.0035838.874317.3426038.958.807zm-5.168 5.168c-.0250865-.140802-.0407878-.2831156-.047-.426-.0706513-1.7400528 1.2764509-3.2108776 3.016-3.293.222578.003052.4439244.0336173.659.091zm-7.613 4.824c1-.007 1.967-.04 2.894-.1l-6 5.995.819-3.5zm5.14-2.351c-1.847521.2477318-3.7099674.3673507-5.574.358-.256 0-.5-.009-.757-.02-5.289-.175-8.323-2.264-8.323-5.73-.04234385-.3123524.03401976-.6292257.214-.888.457-.357 2.261.094 3.711.456.774.194 1.6.4 2.467.572 2.435.491 5.985.982 8.785 1.336-.064348.3352309-.0978214.6756561-.1 1.017-.0016555.3979866.041958.7948703.13 1.183.0652708.3019435.158334.5972015.278.882zm9.9-9.9c-.765081-1.1247113-2.1987617-1.5823831-3.474-1.109v-6.183c0-.5522847-.4477153-1-1-1s-1 .4477153-1 1v6.183c-.9137318-.3363534-1.9342563-.2039655-2.7319204.3543994-.7976642.5583649-1.2713626 1.471933-1.2680796 2.4456006.0002626.7410276.2790261 1.4548907.781 2l-4.237-3.188-2.425-5.655c-.1118157-.2620186-.330076-.4639093-.6-.555l-6-2c8.4658066-9.03746249 22.4223966-10.13795262 32.2-2.539z"/><path id="Shape" d="m48.323 13.083-28.074 28.074-7.165 7.165c-.1972979.1972389-.3032331.467929-.2922194.7466912.0110138.2787622.1379751.5402507.3502194.7213088 5.4588669 4.6531016 12.5986145 6.8422451 19.727492 6.0487167 7.1288776-.7935285 13.6124724-4.4991111 17.914508-10.2387167.011-.012.027-.016.037-.028.0153504-.0245632.0293706-.0499331.042-.076 7.2313724-9.7161322 6.7866078-23.1408047-1.072-32.357-.1810258-.2120853-.4423809-.3389567-.721-.35-.2784737-.0068314-.5478828.0992011-.747.294zm-7.363 18.467c-2.2784923.0130703-4.5537823-.1726335-6.8-.555l-.449-.468 3.56-3.56c1.909-.257 4.462-.631 6.419-1.026.865-.172 1.7-.379 2.469-.573 1.45-.361 3.255-.812 3.711-.456.1799802.2587743.2563438.5756476.214.888 0 3.466-3.034 5.555-8.33 5.731-.254.01-.498.019-.794.019zm-8.96 10.98c0 6.47-1.3 6.47-2 6.47s-2 0-2-6.47c0-1.935.115-4.17.336-6.632l3.018-3.018c.3891619 3.2026668.6048102 6.4240389.646 9.65zm-12.082 1.786.519 4.944-1.408 2.069c-1.3203943-.6740782-2.5754343-1.4691489-3.749-2.375zm.952 7.862 1.43-2.095c.1331078-.1954737.1926312-.4317959.168-.667l-.715-6.8.079-.208 4.334-4.334c-.108 1.602-.166 3.103-.166 4.456 0 5.084.68 8.47 4 8.47s4-3.386 4-8.47c-.0365001-3.1558953-.2401186-6.3076428-.61-9.442l2.027 2.118 2.833 7.407-.715 6.8c-.0250919.2358353.035226.4728491.17.668l1.437 2.1c-5.8505575 2.4213932-12.423565 2.4185154-18.272-.008zm20.109-.847-1.416-2.072.7-6.675c.0159116-.1563213-.0049787-.314197-.061-.461l-2.99-7.82c-.0472019-.1245998-.1193411-.2382532-.212-.334l-.625-.653c1.3266667.1333333 2.7223333.2083333 4.187.225l2.3 2.407 1.438 5.236c.0548214.1954075.167408.3696902.323.5l4.037 3.386c-2.1000867 2.5954405-4.7154567 4.7273024-7.681 6.261zm13.021-21.331c.0052673 4.8023311-1.438665 9.4945011-4.143 13.463l-3.715-3.109-1.418-5.178c-.042969-.1601146-.1258938-.3066954-.241-.426l-1.26-1.32c8.178-.8 8.857-5.987 8.857-7.63.0815954-.9307419-.2831481-1.8450125-.983-2.464-1.225-.957-3.078-.495-5.426.092-.745.186-1.544.385-2.379.552-1.1.222-2.4.438-3.668.63l9.331-9.33c3.2697734 4.2102123 5.0447769 9.3892115 5.045 14.72z"/></g></g></svg>