<svg height="511pt" viewBox="1 0 511.9999 511" width="511pt" fill='#fff' xmlns="http://www.w3.org/2000/svg"><path d="m505.0625 217.9375-73.324219-42.332031c-3.886719-2.242188-8.851562-.914063-11.09375 2.964843-2.246093 3.886719-.914062 8.851563 2.972657 11.097657l69.75 40.269531-119.390626 68.929688v-35.164063c0-7.675781-6.242187-13.917969-13.917968-13.917969h-67.132813v-39.683594h67.132813c7.675781 0 13.917968-6.242187 13.917968-13.90625v-35.1875l23.257813 13.429688c3.886719 2.246094 8.851563.914062 11.09375-2.972656 2.246094-3.878906.914063-8.84375-2.972656-11.085938l-26.839844-15.5c-9.285156-5.359375-20.78125 1.402344-20.78125 11.996094v36.984375h-64.808594v-39.09375h36.972657c10.625 0 17.339843-11.539063 12.007812-20.78125l-73.070312-126.558594c-5.339844-9.230469-18.652344-9.238281-23.996094 0l-27.753906 48.066407c-2.246094 3.890624-.914063 8.851562 2.972656 11.097656 3.886718 2.242187 8.851562.914062 11.09375-2.976563l25.683594-44.484375 68.929687 119.394532h-35.175781c-7.664063 0-13.90625 6.242187-13.90625 13.917968v148.992188c-10.039063-11.257813-23.988282-18.960938-39.691406-20.960938v-128.03125c0-7.675781-6.234376-13.917968-13.910157-13.917968h-35.171875l28.015625-48.535157c2.246094-3.878906.914063-8.851562-2.972656-11.097656-3.890625-2.242187-8.851563-.902344-11.097656 2.976563l-30.078125 52.117187c-5.335938 9.175781 1.335937 20.78125 11.988281 20.78125h36.984375v125.207031h-66.484375v-36.980468c0-7.644532-6.222656-13.867188-13.855469-13.867188-5.199218 0 4.632813-4.804688-133.464844 74.929688-9.230468 5.304687-9.289062 18.628906-.007812 24.007812l37.164062 21.460938c3.886719 2.234374 8.851563.902343 11.09375-2.976563 2.246094-3.886719.914063-8.851563-2.972656-11.09375l-33.589844-19.390625 119.390626-68.929688v35.167969c0 7.671875 6.242187 13.917969 13.917968 13.917969 85.257813 0 79.308594-.328125 85.050782.667969 22.503906 3.878906 39.691406 23.542969 39.691406 47.132812 0 85.007813-.125 79.179688.292968 80.6875-.425781 1.53125-.292968-1.839843-.292968 50.023438 0 11.597656-10.351563 21.804687-23.398438 19.523437-9.21875-1.746094-16.292968-10.183594-16.292968-20.101562v-74.1875c0-35.316406-28.726563-64.066406-64.066407-64.066406h-20.996093c-7.671876 0-13.90625 6.242187-13.90625 13.910156v35.171875l-59.425782-34.300781c-3.890625-2.242188-8.851562-.914063-11.097656 2.976562-2.242188 3.875-.914062 8.851562 2.976562 11.09375 68.382813 39.480469 64.828126 38.242188 69.933594 38.242188 7.632813 0 13.855469-6.222657 13.855469-13.867188v-36.984375h18.660156c26.371094 0 47.824219 21.460937 47.824219 47.824219v74.765625c0 20.097656 16.425781 36.089843 36.085938 36.089843 19.898437 0 36.089843-16.191406 36.089843-36.089843 0-47.296875 0-172.195313 0-208.703125h64.808594v36.980468c0 10.636719 11.550781 17.324219 20.78125 12l126.539063-73.0625c9.265624-5.347656 9.25-18.671874.007812-24.007812zm0 0"/></svg>